PathFileType	4	(X/Y/Z)	RBDS03static.trc
DataRate	CameraRate	NumFrames	NumMarkers	Units	OrigDataRate	OrigDataStartFrame	OrigNumFrames
150.000000	150.000000	4	48	mm	150.000000	112	150
Frame#	Time	L.Ankle			L.Ankle.Medial			L.ASIS			L.GTR			L.Heel.Bottom			L.Heel.Lateral			L.Heel.Top			L.HF			L.Iliac.Crest			L.Knee			L.Knee.Medial			L.MT1			L.MT2			L.MT5			L.PSIS			L.Shank.Bottom.Lateral			L.Shank.Bottom.Medial			L.Shank.Top.Lateral			L.Shank.Top.Medial			L.Thigh.Bottom.Lateral			L.Thigh.Bottom.Medial			L.Thigh.Top.Lateral			L.Thigh.Top.Medial			L.TT			R.Ankle			R.Ankle.Medial			R.ASIS			R.GTR			R.Heel.Bottom			R.Heel.Lateral			R.Heel.Top			R.HF			R.Iliac.Crest			R.Knee			R.Knee.Medial			R.MT1			R.MT2			R.MT5			R.PSIS			R.Shank.Bottom.Lateral			R.Shank.Bottom.Medial			R.Shank.Top.Lateral			R.Shank.Top.Medial			R.Thigh.Bottom.Lateral			R.Thigh.Bottom.Medial			R.Thigh.Top.Lateral			R.Thigh.Top.Medial			R.TT			
		X1	Y1	Z1	X2	Y2	Z2	X3	Y3	Z3	X4	Y4	Z4	X5	Y5	Z5	X6	Y6	Z6	X7	Y7	Z7	X8	Y8	Z8	X9	Y9	Z9	X10	Y10	Z10	X11	Y11	Z11	X12	Y12	Z12	X13	Y13	Z13	X14	Y14	Z14	X15	Y15	Z15	X16	Y16	Z16	X17	Y17	Z17	X18	Y18	Z18	X19	Y19	Z19	X20	Y20	Z20	X21	Y21	Z21	X22	Y22	Z22	X23	Y23	Z23	X24	Y24	Z24	X25	Y25	Z25	X26	Y26	Z26	X27	Y27	Z27	X28	Y28	Z28	X29	Y29	Z29	X30	Y30	Z30	X31	Y31	Z31	X32	Y32	Z32	X33	Y33	Z33	X34	Y34	Z34	X35	Y35	Z35	X36	Y36	Z36	X37	Y37	Z37	X38	Y38	Z38	X39	Y39	Z39	X40	Y40	Z40	X41	Y41	Z41	X42	Y42	Z42	X43	Y43	Z43	X44	Y44	Z44	X45	Y45	Z45	X46	Y46	Z46	X47	Y47	Z47	X48	Y48	Z48	

113	0.7466666666666667	716.7818603515625	111.3555145263672	1045.341186523438	727.3689575195313	119.6921234130859	1125.748657226563	848.0902099609375	1064.72265625	1103.743041992188	781.5552368164063	959.8405151367188	1049.961059570313	638.1776123046875	42.50395584106445	1086.6396484375	674.5859375	58.00498199462891	1043.187744140625	649.1163330078125	92.71024322509766	1089.77880859375	721.6609497070313	496.3046569824219	1047.967529296875	765.4310302734375	1121.864868164063	1064.212280273438	720.647216796875	552.253173828125	1055.59326171875	721.9616088867188	536.1368408203125	1169.833740234375	859.13916015625	62.17216110229492	1140.5517578125	867.0074462890625	73.55727386474609	1099.817749023438	835.131103515625	55.39575958251953	1031.818115234375	686.4661865234375	1080.554565429688	1181.388671875	710.2788696289063	186.3582916259766	1043.541748046875	666.7564697265625	185.4943695068359	1076.41015625	701.3900756835938	265.3174438476563	1032.607666015625	658.7379150390625	265.4446105957031	1064.969848632813	735.860107421875	643.9788818359375	1048.71533203125	676.8072509765625	650.1852416992188	1093.156860351563	737.767333984375	753.9752197265625	1039.127807617188	683.1448364257813	760.1484375	1083.129028320313	772.4834594726563	476.8235168457031	1094.648315429688	708.5753784179688	110.3080825805664	1411.25927734375	728.0654907226563	127.4933929443359	1333.411743164063	871.4483642578125	1072.202270507813	1316.322509765625	812.1737060546875	968.17578125	1385.758544921875	631.6151733398438	45.19442749023438	1364.979370117188	668.6985473632813	66.58895111083984	1410.978271484375	641.855712890625	93.79941558837891	1364.434814453125	724.1845092773438	498.783447265625	1409.611450195313	804.7363891601563	1134.58544921875	1362.715942382813	727.834228515625	565.7321166992188	1399.865478515625	729.8643798828125	541.6154174804688	1286.043334960938	844.8193969726563	58.14156723022461	1322.96142578125	861.8718872070313	75.80687713623047	1371.224487304688	824.9481811523438	51.3929443359375	1437.785888671875	696.6669921875	1083.988647460938	1263.90185546875	694.6763916015625	179.8865356445313	1413.284301757813	662.1306762695313	183.2829895019531	1373.024291992188	688.3768310546875	264.1836242675781	1423.033569335938	655.7430419921875	263.4647216796875	1379.989624023438	765.5414428710938	674.2478637695313	1406.309448242188	699.04541015625	675.490966796875	1374.9560546875	763.9827880859375	785.296875	1408.990844726563	702.8605346679688	785.72216796875	1375.661743164063	778.6050415039063	478.3421630859375	1368.546508789063	
114	0.7533333333333334	716.7918090820313	111.357307434082	1045.346069335938	727.3770751953125	119.701286315918	1125.739135742188	848.0911254882813	1064.728759765625	1103.725463867188	781.5669555664063	959.8514404296875	1049.945434570313	638.1813354492188	42.50825500488281	1086.630981445313	674.5855712890625	58.00542831420898	1043.185302734375	649.1226196289063	92.71643829345703	1089.78857421875	721.66162109375	496.321044921875	1047.963989257813	765.4222412109375	1121.867919921875	1064.189086914063	720.65673828125	552.2581176757813	1055.585815429688	721.99169921875	536.1358032226563	1169.821411132813	859.1316528320313	62.17139434814453	1140.558715820313	867.0044555664063	73.55759429931641	1099.806396484375	835.1275024414063	55.38314437866211	1031.824829101563	686.4647216796875	1080.555786132813	1181.3779296875	710.2958984375	186.3539581298828	1043.550659179688	666.7597045898438	185.4962310791016	1076.401245117188	701.3984985351563	265.3103332519531	1032.6025390625	658.7437744140625	265.4500427246094	1064.96484375	735.8839111328125	643.9862670898438	1048.709106445313	676.8096313476563	650.1873168945313	1093.15478515625	737.7716674804688	753.9744873046875	1039.1298828125	683.1497192382813	760.153076171875	1083.115966796875	772.4940795898438	476.8261108398438	1094.65283203125	708.5684814453125	110.3182373046875	1411.255126953125	728.0563354492188	127.4876251220703	1333.402099609375	871.45849609375	1072.2041015625	1316.312622070313	812.173095703125	968.1817626953125	1385.734252929688	631.6215209960938	45.19982528686523	1364.96728515625	668.7037353515625	66.58824920654297	1410.986206054688	641.8599853515625	93.80628204345703	1364.434814453125	724.1946411132813	498.7982788085938	1409.6015625	804.7398071289063	1134.589111328125	1362.72509765625	727.8367919921875	565.724853515625	1399.843139648438	729.8826293945313	541.6068115234375	1286.042846679688	844.8174438476563	58.14409255981445	1322.957641601563	861.8771362304688	75.80589294433594	1371.212280273438	824.9625244140625	51.39764404296875	1437.77978515625	696.6691284179688	1083.987060546875	1263.899047851563	694.6869506835938	179.8868103027344	1413.288330078125	662.1345825195313	183.2799682617188	1373.016845703125	688.38134765625	264.1839599609375	1423.030639648438	655.7460327148438	263.4705200195313	1379.983764648438	765.55419921875	674.245849609375	1406.287475585938	699.0481567382813	675.49755859375	1374.934204101563	763.9801025390625	785.3088989257813	1408.968139648438	702.8601684570313	785.7208251953125	1375.637329101563	778.6101684570313	478.35400390625	1368.55419921875	
115	0.76	716.7792358398438	111.3580093383789	1045.34716796875	727.3744506835938	119.6941299438477	1125.74169921875	848.0840454101563	1064.726440429688	1103.713256835938	781.5648193359375	959.8482055664063	1049.950439453125	638.1820678710938	42.51724243164063	1086.635986328125	674.58251953125	58.01303482055664	1043.185791015625	649.127197265625	92.71629333496094	1089.77783203125	721.6637573242188	496.3162841796875	1047.971557617188	765.419677734375	1121.861328125	1064.189331054688	720.673095703125	552.2528686523438	1055.584106445313	721.990234375	536.1546630859375	1169.821533203125	859.1392822265625	62.16662979125977	1140.546508789063	867.0057373046875	73.55677032470703	1099.801513671875	835.1310424804688	55.38788986206055	1031.823364257813	686.4730224609375	1080.564697265625	1181.373413085938	710.2931518554688	186.3529968261719	1043.544555664063	666.7551879882813	185.5042877197266	1076.40087890625	701.40185546875	265.323486328125	1032.601196289063	658.747314453125	265.45654296875	1064.972412109375	735.8652954101563	643.9915161132813	1048.713623046875	676.8168334960938	650.18994140625	1093.146606445313	737.7809448242188	753.9833984375	1039.121948242188	683.1549072265625	760.1546630859375	1083.122802734375	772.511474609375	476.8443908691406	1094.643188476563	708.5702514648438	110.3212738037109	1411.250122070313	728.068115234375	127.4938354492188	1333.405517578125	871.4791259765625	1072.21630859375	1316.296142578125	812.1758422851563	968.1840209960938	1385.723510742188	631.6196899414063	45.19619369506836	1364.965942382813	668.701416015625	66.59203338623047	1410.98046875	641.8566284179688	93.80277252197266	1364.436889648438	724.1956176757813	498.7862548828125	1409.60205078125	804.744384765625	1134.5791015625	1362.716796875	727.8319091796875	565.7372436523438	1399.851684570313	729.8673706054688	541.6141357421875	1286.028564453125	844.8110961914063	58.13324737548828	1322.962524414063	861.8768920898438	75.80912017822266	1371.218505859375	824.9611206054688	51.3931884765625	1437.771728515625	696.6771240234375	1083.99560546875	1263.887817382813	694.6759643554688	179.8992309570313	1413.28955078125	662.1360473632813	183.2845306396484	1373.025146484375	688.3811645507813	264.18798828125	1423.025512695313	655.7431640625	263.4706726074219	1379.979736328125	765.5529174804688	674.2445678710938	1406.280151367188	699.04931640625	675.5043334960938	1374.915405273438	763.9779663085938	785.3049926757813	1408.961059570313	702.8600463867188	785.7251586914063	1375.6240234375	778.6148071289063	478.3623352050781	1368.542236328125	
116	0.7666666666666667	716.7935180664063	111.3511047363281	1045.343872070313	727.3845825195313	119.7051239013672	1125.754638671875	848.0891723632813	1064.734252929688	1103.712524414063	781.5706787109375	959.849365234375	1049.945922851563	638.1815795898438	42.51605224609375	1086.64013671875	674.58349609375	58.01519393920898	1043.185424804688	649.1229858398438	92.72234344482422	1089.783325195313	721.6698608398438	496.3234252929688	1047.959594726563	765.41455078125	1121.867919921875	1064.177368164063	720.6713256835938	552.2651977539063	1055.5859375	721.9915161132813	536.1451416015625	1169.81591796875	859.1389770507813	62.18111038208008	1140.555786132813	867.00830078125	73.5577392578125	1099.801513671875	835.1317138671875	55.39178848266602	1031.821166992188	686.4711303710938	1080.565307617188	1181.3740234375	710.2899169921875	186.3573150634766	1043.549560546875	666.7649536132813	185.5066528320313	1076.411010742188	701.4087524414063	265.3198852539063	1032.604125976563	658.752197265625	265.4588623046875	1064.981323242188	735.8699951171875	643.9957275390625	1048.710083007813	676.8157958984375	650.1966552734375	1093.14501953125	737.787841796875	753.9824829101563	1039.125610351563	683.1575317382813	760.162841796875	1083.119506835938	772.51318359375	476.8517456054688	1094.662719726563	708.5671997070313	110.3307342529297	1411.259765625	728.0540771484375	127.493049621582	1333.411010742188	871.4782104492188	1072.211303710938	1316.290283203125	812.1778564453125	968.191162109375	1385.7275390625	631.6193237304688	45.20441055297852	1364.975219726563	668.7059936523438	66.59787750244141	1410.982666015625	641.8555908203125	93.81055450439453	1364.441040039063	724.2042236328125	498.7948608398438	1409.596923828125	804.75341796875	1134.581420898438	1362.713989257813	727.8348388671875	565.7394409179688	1399.838745117188	729.9039916992188	541.6217651367188	1286.02099609375	844.816650390625	58.14308547973633	1322.965576171875	861.88671875	75.81904602050781	1371.218627929688	824.9572143554688	51.40579223632813	1437.787719726563	696.68603515625	1083.995239257813	1263.884155273438	694.6778564453125	179.9063262939453	1413.285522460938	662.136962890625	183.2906494140625	1373.025024414063	688.3845825195313	264.2018737792969	1423.019287109375	655.7457885742188	263.4739379882813	1379.97998046875	765.5567626953125	674.257080078125	1406.270751953125	699.0576171875	675.5034790039063	1374.89501953125	763.9783935546875	785.3147583007813	1408.9501953125	702.861083984375	785.73828125	1375.614868164063	778.6259155273438	478.3649597167969	1368.542846679688	
